<?xml version="1.0" encoding="utf-8"?>
<!-- Generator: Adobe Illustrator 26.5.0, SVG Export Plug-In . SVG Version: 6.00 Build 0)  -->
<svg version="1.1" id="Capa_1" xmlns="http://www.w3.org/2000/svg" xmlns:xlink="http://www.w3.org/1999/xlink" x="0px" y="0px"
	 viewBox="0 0 841.89 595.28" style="enable-background:new 0 0 841.89 595.28;" xml:space="preserve">
<style type="text/css">
	.st0{fill-rule:evenodd;clip-rule:evenodd;}
</style>
<g>
	<g>
		<path d="M159.17,278.35c-6.54,5.81-16.23,8.71-29.08,8.71h-25.36v52.08h-7.61v-118.7h32.97c13.08,0,22.83,3.02,29.25,9.05
			s9.64,14.18,9.64,24.43C168.97,264.39,165.7,272.54,159.17,278.35z M161.36,253.91c0-8.68-2.48-15.3-7.44-19.87
			c-4.96-4.56-12.91-6.85-23.84-6.85h-25.36v53.09h25.36C150.94,280.29,161.36,271.5,161.36,253.91z"/>
		<path d="M200.68,268.28c3.78-7.1,9.02-12.57,15.72-16.4c6.7-3.83,14.34-5.75,22.91-5.75c9.69,0,17.92,2.37,24.69,7.1
			c6.76,4.73,11.5,10.77,14.2,18.09v-24.01h7.61v91.81h-7.61v-24.18c-2.7,7.44-7.47,13.56-14.29,18.35
			c-6.82,4.79-15.02,7.19-24.6,7.19c-8.57,0-16.21-1.94-22.91-5.83c-6.71-3.89-11.95-9.41-15.72-16.57
			c-3.78-7.16-5.67-15.47-5.67-24.94S196.9,275.38,200.68,268.28z M273.22,271.92c-3.33-6.14-7.87-10.88-13.61-14.2
			c-5.75-3.32-12.17-4.99-19.28-4.99c-7.44,0-13.98,1.61-19.61,4.82c-5.64,3.21-10.04,7.86-13.19,13.95
			c-3.15,6.09-4.73,13.3-4.73,21.64c0,8.34,1.58,15.56,4.73,21.64c3.15,6.09,7.58,10.77,13.28,14.04c5.69,3.27,12.2,4.9,19.53,4.9
			c7.1,0,13.56-1.66,19.36-4.99c5.8-3.32,10.34-8.06,13.61-14.2c3.27-6.14,4.9-13.27,4.9-21.39
			C278.2,285.14,276.54,278.07,273.22,271.92z"/>
		<path d="M343.47,250.78c5.75-3.55,13.07-5.33,21.98-5.33v7.95h-2.54c-9.02,0-16.51,2.57-22.49,7.69
			c-5.97,5.13-8.96,13.5-8.96,25.11v52.92h-7.61v-91.81h7.61v18.94C333.72,259.49,337.72,254.33,343.47,250.78z"/>
		<path d="M394.28,268.28c3.78-7.1,9.02-12.57,15.72-16.4c6.71-3.83,14.34-5.75,22.91-5.75c9.7,0,17.93,2.37,24.69,7.1
			c6.77,4.73,11.5,10.77,14.21,18.09v-24.01h7.61v91.81h-7.61v-24.18c-2.7,7.44-7.47,13.56-14.29,18.35
			c-6.83,4.79-15.02,7.19-24.61,7.19c-8.57,0-16.2-1.94-22.91-5.83c-6.7-3.89-11.94-9.41-15.72-16.57
			c-3.78-7.16-5.67-15.47-5.67-24.94S390.5,275.38,394.28,268.28z M466.82,271.92c-3.33-6.14-7.87-10.88-13.62-14.2
			c-5.74-3.32-12.17-4.99-19.27-4.99c-7.44,0-13.98,1.61-19.61,4.82c-5.64,3.21-10.04,7.86-13.19,13.95s-4.73,13.3-4.73,21.64
			c0,8.34,1.58,15.56,4.73,21.64c3.15,6.09,7.58,10.77,13.27,14.04c5.7,3.27,12.21,4.9,19.53,4.9c7.1,0,13.55-1.66,19.36-4.99
			c5.8-3.32,10.34-8.06,13.61-14.2c3.27-6.14,4.91-13.27,4.91-21.39C471.81,285.14,470.14,278.07,466.82,271.92z"/>
		<path d="M585.6,255.52c6.88,6.71,10.31,16.66,10.31,29.84v53.77h-7.44v-53.26c0-10.93-2.76-19.3-8.29-25.11
			c-5.52-5.8-13.02-8.71-22.49-8.71c-9.92,0-17.84,3.16-23.76,9.47c-5.92,6.31-8.87,15.67-8.87,28.07v49.54h-7.61v-91.81h7.61v19.44
			c2.59-6.88,6.9-12.15,12.93-15.81c6.03-3.66,12.99-5.5,20.88-5.5C569.82,245.46,578.72,248.81,585.6,255.52z"/>
		<path d="M634.04,268.28c3.78-7.1,9.02-12.57,15.72-16.4c6.71-3.83,14.34-5.75,22.91-5.75c9.69,0,17.93,2.37,24.69,7.1
			c6.76,4.73,11.5,10.77,14.2,18.09v-24.01h7.61v91.81h-7.61v-24.18c-2.7,7.44-7.47,13.56-14.29,18.35
			c-6.82,4.79-15.02,7.19-24.6,7.19c-8.57,0-16.2-1.94-22.91-5.83c-6.71-3.89-11.95-9.41-15.72-16.57
			c-3.78-7.16-5.66-15.47-5.66-24.94S630.26,275.38,634.04,268.28z M706.58,271.92c-3.33-6.14-7.86-10.88-13.61-14.2
			c-5.75-3.32-12.17-4.99-19.27-4.99c-7.44,0-13.98,1.61-19.62,4.82c-5.64,3.21-10.03,7.86-13.19,13.95
			c-3.16,6.09-4.74,13.3-4.74,21.64c0,8.34,1.58,15.56,4.74,21.64c3.15,6.09,7.58,10.77,13.27,14.04c5.69,3.27,12.2,4.9,19.53,4.9
			c7.1,0,13.55-1.66,19.36-4.99c5.8-3.32,10.34-8.06,13.61-14.2c3.27-6.14,4.9-13.27,4.9-21.39
			C711.57,285.14,709.91,278.07,706.58,271.92z"/>
	</g>
	<g>
		<path d="M331.16,387.69v23.81h-3.11v-10.79h-12.13v10.79h-3.11v-23.81h3.11v10.45h12.13v-10.45H331.16z"/>
		<path d="M359.75,410.19c-1.82-1.04-3.26-2.48-4.32-4.34c-1.06-1.86-1.59-3.95-1.59-6.27c0-2.32,0.53-4.41,1.59-6.27
			c1.06-1.86,2.5-3.3,4.32-4.34c1.82-1.04,3.84-1.56,6.05-1.56c2.23,0,4.26,0.52,6.08,1.56c1.82,1.04,3.26,2.48,4.3,4.32
			c1.05,1.85,1.57,3.94,1.57,6.29c0,2.35-0.52,4.44-1.57,6.28c-1.05,1.85-2.48,3.29-4.3,4.32c-1.82,1.04-3.85,1.55-6.08,1.55
			C363.59,411.74,361.58,411.23,359.75,410.19z M370.29,407.88c1.33-0.77,2.38-1.88,3.14-3.31c0.76-1.44,1.15-3.1,1.15-4.99
			c0-1.91-0.38-3.58-1.15-5c-0.76-1.42-1.8-2.52-3.13-3.3c-1.32-0.77-2.82-1.16-4.51-1.16c-1.68,0-3.19,0.39-4.51,1.16
			c-1.32,0.77-2.36,1.87-3.13,3.3c-0.77,1.42-1.15,3.09-1.15,5c0,1.89,0.38,3.55,1.15,4.99c0.76,1.43,1.81,2.54,3.14,3.31
			c1.33,0.77,2.83,1.16,4.49,1.16C367.46,409.04,368.96,408.66,370.29,407.88z"/>
		<path d="M418.44,394.59c-0.66-1.39-1.62-2.46-2.87-3.23c-1.25-0.76-2.71-1.14-4.37-1.14c-1.66,0-3.16,0.38-4.49,1.14
			c-1.34,0.76-2.38,1.86-3.15,3.28c-0.76,1.42-1.14,3.07-1.14,4.94c0,1.87,0.38,3.51,1.14,4.92c0.77,1.41,1.81,2.5,3.15,3.26
			c1.33,0.76,2.83,1.15,4.49,1.15c2.32,0,4.24-0.7,5.74-2.08c1.5-1.39,2.38-3.27,2.63-5.64h-9.5v-2.53h12.81v2.39
			c-0.18,1.96-0.79,3.75-1.84,5.38c-1.05,1.63-2.42,2.91-4.13,3.86c-1.71,0.94-3.61,1.42-5.7,1.42c-2.21,0-4.22-0.52-6.05-1.56
			c-1.82-1.04-3.26-2.48-4.32-4.32c-1.06-1.84-1.59-3.93-1.59-6.25c0-2.32,0.53-4.41,1.59-6.27s2.5-3.3,4.32-4.34
			c1.82-1.04,3.84-1.56,6.05-1.56c2.53,0,4.77,0.63,6.71,1.88c1.95,1.25,3.36,3.02,4.26,5.29H418.44z"/>
		<path d="M459.6,406.21h-10.38l-1.92,5.29h-3.28l8.61-23.67h3.59l8.57,23.67h-3.28L459.6,406.21z M458.72,403.68l-4.3-12.02
			l-4.3,12.02H458.72z"/>
		<path d="M499.64,411.5l-5.67-9.74h-3.76v9.74h-3.11v-23.81h7.69c1.8,0,3.32,0.31,4.56,0.92s2.17,1.45,2.78,2.49
			c0.62,1.05,0.92,2.24,0.92,3.59c0,1.64-0.47,3.09-1.42,4.34c-0.95,1.25-2.36,2.08-4.26,2.49l5.98,9.98H499.64z M490.21,399.27
			h4.58c1.68,0,2.95-0.41,3.79-1.25c0.84-0.83,1.26-1.94,1.26-3.33c0-1.41-0.42-2.5-1.25-3.28c-0.83-0.77-2.1-1.16-3.81-1.16h-4.58
			V399.27z"/>
	</g>
	<path class="st0" d="M655.94,224.59c1.62-4.91,13.83-13,21.98-14.34c-0.66,1.02-1.32,2.04-1.98,3.06c-0.05,0.08-0.1,0.16-0.14,0.23
		c-0.28,0.44-0.07,0.71,0.45,0.36c0.08-0.06,0.17-0.13,0.26-0.21l5.18-3.67c0.4-0.36,1.58-0.9,2.14-0.99
		c1.99-0.3,1.98-0.28,3.99-0.51c3.5-0.39,6.9-1.18,10.18-2.44c3.74-1.43,7.27-3.27,10.43-5.75c1.72-1.35,3.36-2.8,5.05-4.21
		c-0.18,0.67-0.32,1.42-0.58,2.12c-0.95,2.55-1.82,5.14-2.93,7.61c-1.93,4.25-4.23,8.2-7.43,11.64c-0.19,0.2-0.65,0.34-0.93,0.37
		l-2.25,0.31c0.72,0.06,1.46,0.15,2.37,0.23c-1.09,1.08-1.25,1.8-2.83,1.95c-1.76,0.2-3.92,0.59-5.68,0.79
		c-0.43,0.07-0.42,0.45,0.01,0.51c1.32,0.12,2.55,0.22,4.02,0.37c0.32,0.03,0.36,0.04,0.34,0.07c-1.04,0.69-1.69,1.12-2.75,1.78
		c-6.8,4.19-17.82,5.49-25.79,4.8c-0.61-0.03-0.48-0.02-0.92-0.21c-0.49-0.23-1.97-1.15-2.48-1.4c0.12,0.11,0.77,1.2,0.77,1.23
		c-2.28-0.12-6.53-0.55-9.89-1.41c-3.7-0.01-8.01-0.24-12.25-2.75c-1.57-0.93,5.89,2.56,12.02,0.86c2.62-0.73,5.17-1.69,7.89-2.13
		c3.27-0.53,6.59-0.83,9.88-1.2c4.37-0.49,8.68-1.21,12.89-2.52c2.88-0.91,5.67-2.04,8.33-3.46c1.09-0.57,2.11-1.26,3.15-1.91
		c-2.06,1.02-4.08,2.12-6.18,3.03c-4.5,1.95-9.24,3.08-14.09,3.67c-4.04,0.49-8.11,0.8-12.16,1.26c-3.37,0.38-6.62,1.23-9.67,2.74
		C656.21,224.52,656.08,224.54,655.94,224.59L655.94,224.59z"/>
	<rect x="97.32" y="399.01" class="st0" width="166.81" height="2.59"/>
	<rect x="552.05" y="399.01" class="st0" width="166.81" height="2.59"/>
</g>
</svg>
