<?xml version="1.0" encoding="utf-8"?>
<!-- Generator: Adobe Illustrator 26.5.0, SVG Export Plug-In . SVG Version: 6.00 Build 0)  -->
<svg version="1.1" id="Capa_1" xmlns="http://www.w3.org/2000/svg" xmlns:xlink="http://www.w3.org/1999/xlink" x="0px" y="0px"
	 viewBox="0 0 472.72 173.89" style="enable-background:new 0 0 472.72 173.89;" xml:space="preserve">
<style type="text/css">
	.st0{fill:#FFFFFF;}
	.st1{fill-rule:evenodd;clip-rule:evenodd;fill:#FFFFFF;}
</style>
<g>
	<g>
		<path class="st0" d="M66.1,69.35c-4.58,4.07-11.37,6.1-20.37,6.1H27.97v36.47h-5.33V28.8h23.09c9.16,0,15.99,2.11,20.48,6.33
			c4.5,4.22,6.75,9.93,6.75,17.11C72.96,59.58,70.67,65.29,66.1,69.35z M67.64,52.24c0-6.08-1.74-10.72-5.21-13.91
			c-3.48-3.2-9.04-4.8-16.7-4.8H27.97v37.18h17.76C60.33,70.71,67.64,64.56,67.64,52.24z"/>
		<path class="st0" d="M93.86,62.31c2.64-4.97,6.31-8.8,11.01-11.48c4.7-2.68,10.04-4.03,16.04-4.03c6.79,0,12.55,1.66,17.29,4.97
			c4.74,3.32,8.05,7.54,9.95,12.67V47.63h5.33v64.29h-5.33V94.99c-1.89,5.21-5.23,9.49-10,12.85c-4.78,3.36-10.52,5.03-17.23,5.03
			c-6,0-11.35-1.36-16.04-4.08c-4.7-2.72-8.37-6.59-11.01-11.6c-2.65-5.01-3.97-10.83-3.97-17.46
			C89.89,73.08,91.21,67.28,93.86,62.31z M144.65,64.85c-2.33-4.3-5.51-7.62-9.53-9.95c-4.03-2.33-8.52-3.49-13.5-3.49
			c-5.21,0-9.79,1.12-13.74,3.37c-3.95,2.25-7.03,5.51-9.24,9.77c-2.21,4.26-3.31,9.32-3.31,15.16c0,5.84,1.1,10.89,3.31,15.16
			c2.21,4.26,5.31,7.54,9.3,9.83c3.98,2.29,8.54,3.43,13.68,3.43c4.97,0,9.49-1.16,13.56-3.49c4.06-2.33,7.24-5.64,9.53-9.95
			c2.29-4.3,3.43-9.29,3.43-14.98C148.15,74.11,146.98,69.16,144.65,64.85z"/>
		<path class="st0" d="M192.55,50.05c4.03-2.49,9.16-3.73,15.39-3.73v5.56h-1.78c-6.32,0-11.56,1.8-15.75,5.39
			c-4.19,3.59-6.28,9.45-6.28,17.58v37.06h-5.33V47.63h5.33v13.26C185.72,56.15,188.52,52.54,192.55,50.05z"/>
		<path class="st0" d="M226.82,62.31c2.64-4.97,6.31-8.8,11.01-11.48c4.7-2.68,10.04-4.03,16.04-4.03c6.79,0,12.55,1.66,17.29,4.97
			c4.74,3.32,8.05,7.54,9.95,12.67V47.63h5.33v64.29h-5.33V94.99c-1.89,5.21-5.23,9.49-10,12.85c-4.78,3.36-10.52,5.03-17.23,5.03
			c-6,0-11.35-1.36-16.04-4.08c-4.7-2.72-8.37-6.59-11.01-11.6c-2.65-5.01-3.97-10.83-3.97-17.46
			C222.86,73.08,224.18,67.28,226.82,62.31z M277.62,64.85c-2.33-4.3-5.51-7.62-9.53-9.95c-4.03-2.33-8.52-3.49-13.5-3.49
			c-5.21,0-9.79,1.12-13.74,3.37c-3.95,2.25-7.03,5.51-9.24,9.77c-2.21,4.26-3.31,9.32-3.31,15.16c0,5.84,1.1,10.89,3.31,15.16
			c2.21,4.26,5.31,7.54,9.3,9.83c3.98,2.29,8.54,3.43,13.68,3.43c4.97,0,9.49-1.16,13.56-3.49c4.06-2.33,7.24-5.64,9.53-9.95
			c2.29-4.3,3.43-9.29,3.43-14.98C281.11,74.11,279.95,69.16,277.62,64.85z"/>
		<path class="st0" d="M359.49,53.37c4.81,4.7,7.22,11.66,7.22,20.9v37.65h-5.21v-37.3c0-7.66-1.93-13.52-5.8-17.58
			c-3.87-4.06-9.12-6.1-15.75-6.1c-6.95,0-12.49,2.21-16.64,6.63c-4.14,4.42-6.22,10.97-6.22,19.65v34.69h-5.33V47.63h5.33v13.62
			c1.81-4.81,4.83-8.5,9.06-11.07c4.22-2.56,9.1-3.85,14.62-3.85C348.44,46.32,354.67,48.67,359.49,53.37z"/>
		<path class="st0" d="M392.11,62.31c2.64-4.97,6.31-8.8,11.01-11.48c4.7-2.68,10.04-4.03,16.04-4.03c6.79,0,12.55,1.66,17.29,4.97
			c4.74,3.32,8.05,7.54,9.95,12.67V47.63h5.33v64.29h-5.33V94.99c-1.89,5.21-5.23,9.49-10,12.85c-4.78,3.36-10.52,5.03-17.23,5.03
			c-6,0-11.35-1.36-16.04-4.08c-4.7-2.72-8.37-6.59-11.01-11.6c-2.65-5.01-3.97-10.83-3.97-17.46
			C388.14,73.08,389.46,67.28,392.11,62.31z M442.9,64.85c-2.33-4.3-5.51-7.62-9.53-9.95c-4.03-2.33-8.52-3.49-13.5-3.49
			c-5.21,0-9.79,1.12-13.74,3.37c-3.95,2.25-7.03,5.51-9.24,9.77c-2.21,4.26-3.31,9.32-3.31,15.16c0,5.84,1.1,10.89,3.31,15.16
			c2.21,4.26,5.31,7.54,9.3,9.83c3.98,2.29,8.54,3.43,13.68,3.43c4.97,0,9.49-1.16,13.56-3.49c4.06-2.33,7.24-5.64,9.53-9.95
			c2.29-4.3,3.43-9.29,3.43-14.98C446.4,74.11,445.23,69.16,442.9,64.85z"/>
	</g>
	<g>
		<path class="st0" d="M192.08,139.37h2.22v16.76h-2.22v-7.57h-8.44v7.57h-2.2v-16.76h2.2v7.45h8.44V139.37z"/>
		<path class="st0" d="M212.85,156.3c-2.4,0-4.43-0.81-6.07-2.43c-1.64-1.62-2.47-3.67-2.47-6.14c0-2.47,0.82-4.51,2.47-6.12
			c1.64-1.6,3.67-2.41,6.07-2.41c2.4,0,4.42,0.8,6.06,2.41c1.64,1.6,2.45,3.65,2.45,6.13c0,2.48-0.82,4.53-2.45,6.14
			C217.28,155.49,215.26,156.3,212.85,156.3z M217.35,152.53c1.18-1.21,1.77-2.81,1.77-4.79c0-1.98-0.59-3.57-1.77-4.78
			c-1.18-1.2-2.68-1.8-4.51-1.8c-1.83,0-3.34,0.6-4.52,1.8c-1.18,1.2-1.78,2.79-1.78,4.78c0,1.98,0.6,3.58,1.79,4.79
			c1.19,1.21,2.7,1.81,4.52,1.81C214.68,154.34,216.18,153.74,217.35,152.53z"/>
		<path class="st0" d="M238.89,156.28c-2.31,0-4.29-0.81-5.94-2.42s-2.47-3.66-2.47-6.13c0-2.47,0.82-4.51,2.47-6.12
			c1.64-1.6,3.67-2.41,6.07-2.41c1.74,0,3.29,0.41,4.66,1.23c1.36,0.82,2.37,2.01,3.01,3.56h-2.66c-1-1.89-2.67-2.83-5.01-2.83
			c-1.82,0-3.33,0.6-4.51,1.8c-1.18,1.2-1.78,2.79-1.78,4.78c0,1.98,0.59,3.58,1.78,4.79c1.18,1.21,2.66,1.81,4.43,1.81
			c1.77,0,3.18-0.5,4.26-1.5c1.07-1,1.7-2.35,1.87-4.06h-6.92v-1.74h9.24v1.74c-0.23,2.16-1.12,3.95-2.68,5.37
			C243.14,155.57,241.2,156.28,238.89,156.28z"/>
		<path class="st0" d="M268.96,156.13l-1.31-3.68h-7.45l-1.31,3.68h-2.25l6.09-16.76h2.42l6.07,16.76H268.96z M260.84,150.71h6.19
			l-3.1-8.66L260.84,150.71z"/>
		<path class="st0" d="M283.57,149.21v6.92h-2.2v-16.76h5.44c1.89,0,3.33,0.46,4.32,1.38c0.99,0.92,1.49,2.04,1.49,3.37
			c0,1.33-0.36,2.44-1.09,3.33c-0.73,0.89-1.81,1.44-3.27,1.67l4.62,7.01h-2.76l-4.4-6.92H283.57z M283.57,141.14v6.34h3.24
			c1.21,0,2.11-0.28,2.7-0.83c0.59-0.56,0.88-1.33,0.88-2.33c0-2.11-1.19-3.17-3.58-3.17H283.57z"/>
	</g>
	<path class="st1" d="M403.63,36.85c1.15-3.48,9.79-9.2,15.56-10.15c-0.47,0.72-0.93,1.45-1.4,2.17c-0.04,0.06-0.07,0.11-0.1,0.16
		c-0.19,0.31-0.05,0.5,0.32,0.25c0.06-0.05,0.12-0.09,0.18-0.15l3.67-2.6c0.28-0.26,1.12-0.64,1.52-0.7c1.41-0.21,1.4-0.2,2.82-0.36
		c2.48-0.28,4.88-0.84,7.21-1.73c2.65-1.02,5.15-2.31,7.38-4.07c1.22-0.96,2.38-1.98,3.58-2.98c-0.13,0.47-0.22,1-0.41,1.5
		c-0.67,1.8-1.29,3.64-2.08,5.39c-1.37,3.01-2.99,5.8-5.26,8.24c-0.13,0.14-0.46,0.24-0.66,0.26l-1.59,0.22
		c0.51,0.04,1.04,0.11,1.68,0.16c-0.77,0.76-0.88,1.28-2,1.38c-1.24,0.14-2.78,0.42-4.02,0.56c-0.31,0.05-0.3,0.32,0.01,0.36
		c0.93,0.09,1.81,0.16,2.84,0.26c0.23,0.02,0.26,0.03,0.24,0.05c-0.74,0.49-1.19,0.8-1.95,1.26c-4.82,2.97-12.62,3.89-18.26,3.4
		c-0.43-0.02-0.34-0.02-0.65-0.15c-0.35-0.16-1.4-0.81-1.76-0.99c0.09,0.08,0.55,0.85,0.54,0.87c-1.61-0.08-4.63-0.39-7-0.99
		c-2.62,0-5.67-0.17-8.67-1.95c-1.11-0.66,4.17,1.81,8.51,0.61c1.86-0.52,3.66-1.19,5.58-1.51c2.32-0.38,4.66-0.59,7-0.85
		c3.09-0.34,6.15-0.85,9.12-1.79c2.04-0.64,4.01-1.45,5.9-2.45c0.77-0.41,1.5-0.89,2.23-1.35c-1.46,0.72-2.89,1.5-4.37,2.15
		c-3.19,1.38-6.54,2.18-9.98,2.6c-2.86,0.35-5.74,0.57-8.61,0.89c-2.38,0.27-4.68,0.87-6.84,1.94
		C403.83,36.81,403.74,36.82,403.63,36.85L403.63,36.85z"/>
	<rect x="20.72" y="146.61" class="st1" width="130.67" height="1.83"/>
	<rect x="321.04" y="146.61" class="st1" width="130.67" height="1.83"/>
</g>
</svg>
